<mxfile host="app.diagrams.net" agent="Mozilla/5.0 (Windows NT 10.0; Win64; x64) AppleWebKit/537.36 (KHTML, like Gecko) Chrome/134.0.0.0 Safari/537.36" version="26.2.8">
  <diagram name="第 1 页" id="glwK6xSexl9I4EFmrmzI">
    <mxGraphModel dx="1044" dy="562" grid="1" gridSize="10" guides="1" tooltips="1" connect="1" arrows="1" fold="1" page="1" pageScale="1" pageWidth="827" pageHeight="1169" math="0" shadow="0">
      <root>
        <mxCell id="0" />
        <mxCell id="1" parent="0" />
        <mxCell id="EMvJGd1fPkYtqGPaU_1e-1" value="&lt;font style=&quot;font-size: 18px;&quot;&gt;执行操作票&lt;/font&gt;" style="swimlane;html=1;childLayout=stackLayout;startSize=20;rounded=0;shadow=0;labelBackgroundColor=none;strokeWidth=1;fontFamily=Verdana;fontSize=8;align=center;" vertex="1" parent="1">
          <mxGeometry x="70" y="40" width="640" height="510" as="geometry" />
        </mxCell>
        <mxCell id="EMvJGd1fPkYtqGPaU_1e-2" value="接收请求" style="swimlane;html=1;startSize=20;" vertex="1" parent="EMvJGd1fPkYtqGPaU_1e-1">
          <mxGeometry y="20" width="160" height="490" as="geometry">
            <mxRectangle y="20" width="40" height="730" as="alternateBounds" />
          </mxGeometry>
        </mxCell>
        <mxCell id="EMvJGd1fPkYtqGPaU_1e-3" value="&lt;font style=&quot;font-size: 12px;&quot;&gt;开始&lt;/font&gt;" style="rounded=1;whiteSpace=wrap;html=1;shadow=0;labelBackgroundColor=none;strokeWidth=1;fontFamily=Verdana;fontSize=8;align=center;" vertex="1" parent="EMvJGd1fPkYtqGPaU_1e-2">
          <mxGeometry x="20" y="65" width="100" height="60" as="geometry" />
        </mxCell>
        <mxCell id="EMvJGd1fPkYtqGPaU_1e-39" value="&lt;span style=&quot;font-size: 12px;&quot;&gt;失败返回&lt;/span&gt;" style="whiteSpace=wrap;html=1;fontSize=8;fontFamily=Verdana;rounded=0;shadow=0;labelBackgroundColor=none;strokeWidth=1;" vertex="1" parent="EMvJGd1fPkYtqGPaU_1e-2">
          <mxGeometry x="30" y="410" width="100" height="60" as="geometry" />
        </mxCell>
        <mxCell id="EMvJGd1fPkYtqGPaU_1e-4" value="参数验证及处理" style="swimlane;html=1;startSize=20;" vertex="1" parent="EMvJGd1fPkYtqGPaU_1e-1">
          <mxGeometry x="160" y="20" width="160" height="490" as="geometry" />
        </mxCell>
        <mxCell id="EMvJGd1fPkYtqGPaU_1e-42" style="edgeStyle=orthogonalEdgeStyle;rounded=0;orthogonalLoop=1;jettySize=auto;html=1;exitX=0.5;exitY=1;exitDx=0;exitDy=0;entryX=0.5;entryY=0;entryDx=0;entryDy=0;" edge="1" parent="EMvJGd1fPkYtqGPaU_1e-4" source="EMvJGd1fPkYtqGPaU_1e-38" target="EMvJGd1fPkYtqGPaU_1e-41">
          <mxGeometry relative="1" as="geometry" />
        </mxCell>
        <mxCell id="EMvJGd1fPkYtqGPaU_1e-44" value="是" style="edgeLabel;html=1;align=center;verticalAlign=middle;resizable=0;points=[];" vertex="1" connectable="0" parent="EMvJGd1fPkYtqGPaU_1e-42">
          <mxGeometry x="-0.2978" y="1" relative="1" as="geometry">
            <mxPoint as="offset" />
          </mxGeometry>
        </mxCell>
        <mxCell id="EMvJGd1fPkYtqGPaU_1e-38" value="&lt;span style=&quot;font-size: 12px;&quot;&gt;参数是否符合要求&lt;/span&gt;" style="rhombus;whiteSpace=wrap;html=1;rounded=0;shadow=0;labelBackgroundColor=none;strokeWidth=1;fontFamily=Verdana;fontSize=8;align=center;" vertex="1" parent="EMvJGd1fPkYtqGPaU_1e-4">
          <mxGeometry x="30" y="170" width="100" height="75" as="geometry" />
        </mxCell>
        <mxCell id="EMvJGd1fPkYtqGPaU_1e-41" value="&lt;span style=&quot;font-size: 12px;&quot;&gt;转换请求参数为&lt;/span&gt;&lt;div&gt;&lt;span style=&quot;font-size: 12px;&quot;&gt;操作票主记录数据对象&lt;/span&gt;&lt;/div&gt;" style="whiteSpace=wrap;html=1;fontSize=8;fontFamily=Verdana;rounded=0;shadow=0;labelBackgroundColor=none;strokeWidth=1;" vertex="1" parent="EMvJGd1fPkYtqGPaU_1e-4">
          <mxGeometry x="30" y="290" width="100" height="60" as="geometry" />
        </mxCell>
        <mxCell id="EMvJGd1fPkYtqGPaU_1e-9" value="保存操作票评价" style="swimlane;html=1;startSize=20;" vertex="1" parent="EMvJGd1fPkYtqGPaU_1e-1">
          <mxGeometry x="320" y="20" width="160" height="490" as="geometry" />
        </mxCell>
        <mxCell id="EMvJGd1fPkYtqGPaU_1e-10" style="edgeStyle=orthogonalEdgeStyle;rounded=0;orthogonalLoop=1;jettySize=auto;html=1;exitX=0.5;exitY=1;exitDx=0;exitDy=0;entryX=0.5;entryY=0;entryDx=0;entryDy=0;" edge="1" parent="EMvJGd1fPkYtqGPaU_1e-9">
          <mxGeometry relative="1" as="geometry">
            <mxPoint x="80" y="317.5" as="sourcePoint" />
          </mxGeometry>
        </mxCell>
        <mxCell id="EMvJGd1fPkYtqGPaU_1e-11" style="edgeStyle=orthogonalEdgeStyle;rounded=0;orthogonalLoop=1;jettySize=auto;html=1;exitX=0.5;exitY=1;exitDx=0;exitDy=0;entryX=0.5;entryY=0;entryDx=0;entryDy=0;" edge="1" parent="EMvJGd1fPkYtqGPaU_1e-9">
          <mxGeometry relative="1" as="geometry">
            <mxPoint x="80" y="420" as="sourcePoint" />
          </mxGeometry>
        </mxCell>
        <mxCell id="EMvJGd1fPkYtqGPaU_1e-12" style="edgeStyle=orthogonalEdgeStyle;rounded=0;orthogonalLoop=1;jettySize=auto;html=1;exitX=0.5;exitY=1;exitDx=0;exitDy=0;entryX=0.5;entryY=0;entryDx=0;entryDy=0;" edge="1" parent="EMvJGd1fPkYtqGPaU_1e-9">
          <mxGeometry relative="1" as="geometry">
            <mxPoint x="80" y="520" as="sourcePoint" />
          </mxGeometry>
        </mxCell>
        <mxCell id="EMvJGd1fPkYtqGPaU_1e-20" style="edgeStyle=orthogonalEdgeStyle;rounded=0;orthogonalLoop=1;jettySize=auto;html=1;exitX=0;exitY=0.5;exitDx=0;exitDy=0;entryX=0.5;entryY=0;entryDx=0;entryDy=0;" edge="1" parent="EMvJGd1fPkYtqGPaU_1e-9" source="EMvJGd1fPkYtqGPaU_1e-22">
          <mxGeometry relative="1" as="geometry">
            <Array as="points">
              <mxPoint x="10" y="198" />
              <mxPoint x="10" y="460" />
              <mxPoint x="80" y="460" />
            </Array>
            <mxPoint x="80" y="480" as="targetPoint" />
          </mxGeometry>
        </mxCell>
        <mxCell id="EMvJGd1fPkYtqGPaU_1e-21" value="更新" style="edgeLabel;html=1;align=center;verticalAlign=middle;resizable=0;points=[];" vertex="1" connectable="0" parent="EMvJGd1fPkYtqGPaU_1e-20">
          <mxGeometry x="-0.9356" y="1" relative="1" as="geometry">
            <mxPoint y="12" as="offset" />
          </mxGeometry>
        </mxCell>
        <mxCell id="EMvJGd1fPkYtqGPaU_1e-50" style="edgeStyle=orthogonalEdgeStyle;rounded=0;orthogonalLoop=1;jettySize=auto;html=1;exitX=0.5;exitY=1;exitDx=0;exitDy=0;entryX=0.5;entryY=0;entryDx=0;entryDy=0;" edge="1" parent="EMvJGd1fPkYtqGPaU_1e-9" source="EMvJGd1fPkYtqGPaU_1e-45" target="EMvJGd1fPkYtqGPaU_1e-49">
          <mxGeometry relative="1" as="geometry" />
        </mxCell>
        <mxCell id="EMvJGd1fPkYtqGPaU_1e-45" value="&lt;span style=&quot;font-size: 12px;&quot;&gt;更新&lt;/span&gt;&lt;div&gt;&lt;span style=&quot;font-size: 12px;&quot;&gt;操作票主记录&lt;/span&gt;&lt;/div&gt;" style="whiteSpace=wrap;html=1;fontSize=8;fontFamily=Verdana;rounded=0;shadow=0;labelBackgroundColor=none;strokeWidth=1;" vertex="1" parent="EMvJGd1fPkYtqGPaU_1e-9">
          <mxGeometry x="30" y="180" width="100" height="60" as="geometry" />
        </mxCell>
        <mxCell id="EMvJGd1fPkYtqGPaU_1e-49" value="&lt;span style=&quot;font-size: 12px;&quot;&gt;请求的操作步骤是否为空&lt;/span&gt;" style="rhombus;whiteSpace=wrap;html=1;rounded=0;shadow=0;labelBackgroundColor=none;strokeWidth=1;fontFamily=Verdana;fontSize=8;align=center;" vertex="1" parent="EMvJGd1fPkYtqGPaU_1e-9">
          <mxGeometry x="30" y="290" width="100" height="75" as="geometry" />
        </mxCell>
        <mxCell id="EMvJGd1fPkYtqGPaU_1e-24" value="操作票转典型" style="swimlane;html=1;startSize=20;" vertex="1" parent="EMvJGd1fPkYtqGPaU_1e-1">
          <mxGeometry x="480" y="20" width="160" height="490" as="geometry" />
        </mxCell>
        <mxCell id="EMvJGd1fPkYtqGPaU_1e-34" value="&lt;span style=&quot;font-size: 12px;&quot;&gt;成功返回&lt;/span&gt;" style="whiteSpace=wrap;html=1;fontSize=8;fontFamily=Verdana;rounded=0;shadow=0;labelBackgroundColor=none;strokeWidth=1;" vertex="1" parent="EMvJGd1fPkYtqGPaU_1e-24">
          <mxGeometry x="30" y="420" width="100" height="60" as="geometry" />
        </mxCell>
        <mxCell id="EMvJGd1fPkYtqGPaU_1e-57" style="edgeStyle=orthogonalEdgeStyle;rounded=0;orthogonalLoop=1;jettySize=auto;html=1;exitX=0.5;exitY=1;exitDx=0;exitDy=0;" edge="1" parent="EMvJGd1fPkYtqGPaU_1e-24" source="EMvJGd1fPkYtqGPaU_1e-55" target="EMvJGd1fPkYtqGPaU_1e-56">
          <mxGeometry relative="1" as="geometry" />
        </mxCell>
        <mxCell id="EMvJGd1fPkYtqGPaU_1e-61" value="是" style="edgeLabel;html=1;align=center;verticalAlign=middle;resizable=0;points=[];" vertex="1" connectable="0" parent="EMvJGd1fPkYtqGPaU_1e-57">
          <mxGeometry x="-0.1911" y="-2" relative="1" as="geometry">
            <mxPoint as="offset" />
          </mxGeometry>
        </mxCell>
        <mxCell id="EMvJGd1fPkYtqGPaU_1e-59" style="edgeStyle=orthogonalEdgeStyle;rounded=0;orthogonalLoop=1;jettySize=auto;html=1;exitX=0;exitY=0.5;exitDx=0;exitDy=0;entryX=0.5;entryY=0;entryDx=0;entryDy=0;" edge="1" parent="EMvJGd1fPkYtqGPaU_1e-24" source="EMvJGd1fPkYtqGPaU_1e-55" target="EMvJGd1fPkYtqGPaU_1e-34">
          <mxGeometry relative="1" as="geometry">
            <Array as="points">
              <mxPoint x="10" y="208" />
              <mxPoint x="10" y="370" />
              <mxPoint x="80" y="370" />
            </Array>
          </mxGeometry>
        </mxCell>
        <mxCell id="EMvJGd1fPkYtqGPaU_1e-60" value="否" style="edgeLabel;html=1;align=center;verticalAlign=middle;resizable=0;points=[];" vertex="1" connectable="0" parent="EMvJGd1fPkYtqGPaU_1e-59">
          <mxGeometry x="-0.9365" y="3" relative="1" as="geometry">
            <mxPoint as="offset" />
          </mxGeometry>
        </mxCell>
        <mxCell id="EMvJGd1fPkYtqGPaU_1e-55" value="&lt;span style=&quot;font-size: 12px;&quot;&gt;更新操作票主记录是否成功&lt;/span&gt;" style="rhombus;whiteSpace=wrap;html=1;rounded=0;shadow=0;labelBackgroundColor=none;strokeWidth=1;fontFamily=Verdana;fontSize=8;align=center;" vertex="1" parent="EMvJGd1fPkYtqGPaU_1e-24">
          <mxGeometry x="30" y="170" width="100" height="75" as="geometry" />
        </mxCell>
        <mxCell id="EMvJGd1fPkYtqGPaU_1e-58" style="edgeStyle=orthogonalEdgeStyle;rounded=0;orthogonalLoop=1;jettySize=auto;html=1;exitX=0.5;exitY=1;exitDx=0;exitDy=0;entryX=0.5;entryY=0;entryDx=0;entryDy=0;" edge="1" parent="EMvJGd1fPkYtqGPaU_1e-24" source="EMvJGd1fPkYtqGPaU_1e-56" target="EMvJGd1fPkYtqGPaU_1e-34">
          <mxGeometry relative="1" as="geometry" />
        </mxCell>
        <mxCell id="EMvJGd1fPkYtqGPaU_1e-56" value="&lt;span style=&quot;font-size: 12px;&quot;&gt;更新&lt;/span&gt;&lt;div&gt;&lt;span style=&quot;font-size: 12px;&quot;&gt;操作票操作项&lt;/span&gt;&lt;/div&gt;" style="whiteSpace=wrap;html=1;fontSize=8;fontFamily=Verdana;rounded=0;shadow=0;labelBackgroundColor=none;strokeWidth=1;" vertex="1" parent="EMvJGd1fPkYtqGPaU_1e-24">
          <mxGeometry x="30" y="290" width="100" height="60" as="geometry" />
        </mxCell>
        <mxCell id="EMvJGd1fPkYtqGPaU_1e-35" style="edgeStyle=orthogonalEdgeStyle;rounded=0;orthogonalLoop=1;jettySize=auto;html=1;entryX=0.5;entryY=0;entryDx=0;entryDy=0;exitX=0.5;exitY=1;exitDx=0;exitDy=0;" edge="1" parent="EMvJGd1fPkYtqGPaU_1e-1" source="EMvJGd1fPkYtqGPaU_1e-3">
          <mxGeometry relative="1" as="geometry">
            <mxPoint x="70" y="240" as="sourcePoint" />
            <mxPoint x="240" y="190" as="targetPoint" />
          </mxGeometry>
        </mxCell>
        <mxCell id="EMvJGd1fPkYtqGPaU_1e-40" style="edgeStyle=orthogonalEdgeStyle;rounded=0;orthogonalLoop=1;jettySize=auto;html=1;exitX=0;exitY=0.5;exitDx=0;exitDy=0;entryX=0.5;entryY=0;entryDx=0;entryDy=0;" edge="1" parent="EMvJGd1fPkYtqGPaU_1e-1" source="EMvJGd1fPkYtqGPaU_1e-38" target="EMvJGd1fPkYtqGPaU_1e-39">
          <mxGeometry relative="1" as="geometry" />
        </mxCell>
        <mxCell id="EMvJGd1fPkYtqGPaU_1e-43" value="否" style="edgeLabel;html=1;align=center;verticalAlign=middle;resizable=0;points=[];" vertex="1" connectable="0" parent="EMvJGd1fPkYtqGPaU_1e-40">
          <mxGeometry x="-0.941" y="1" relative="1" as="geometry">
            <mxPoint as="offset" />
          </mxGeometry>
        </mxCell>
        <mxCell id="EMvJGd1fPkYtqGPaU_1e-46" style="edgeStyle=orthogonalEdgeStyle;rounded=0;orthogonalLoop=1;jettySize=auto;html=1;exitX=0.5;exitY=1;exitDx=0;exitDy=0;entryX=0.5;entryY=0;entryDx=0;entryDy=0;" edge="1" parent="EMvJGd1fPkYtqGPaU_1e-1" source="EMvJGd1fPkYtqGPaU_1e-41" target="EMvJGd1fPkYtqGPaU_1e-45">
          <mxGeometry relative="1" as="geometry">
            <Array as="points">
              <mxPoint x="240" y="410" />
              <mxPoint x="310" y="410" />
              <mxPoint x="310" y="160" />
              <mxPoint x="400" y="160" />
            </Array>
          </mxGeometry>
        </mxCell>
        <mxCell id="EMvJGd1fPkYtqGPaU_1e-51" style="edgeStyle=orthogonalEdgeStyle;rounded=0;orthogonalLoop=1;jettySize=auto;html=1;exitX=1;exitY=0.5;exitDx=0;exitDy=0;entryX=0.5;entryY=0;entryDx=0;entryDy=0;" edge="1" parent="EMvJGd1fPkYtqGPaU_1e-1" source="EMvJGd1fPkYtqGPaU_1e-49" target="EMvJGd1fPkYtqGPaU_1e-55">
          <mxGeometry relative="1" as="geometry">
            <mxPoint x="560" y="180" as="targetPoint" />
            <Array as="points">
              <mxPoint x="470" y="348" />
              <mxPoint x="470" y="160" />
              <mxPoint x="560" y="160" />
            </Array>
          </mxGeometry>
        </mxCell>
        <mxCell id="EMvJGd1fPkYtqGPaU_1e-52" value="否" style="edgeLabel;html=1;align=center;verticalAlign=middle;resizable=0;points=[];" vertex="1" connectable="0" parent="EMvJGd1fPkYtqGPaU_1e-51">
          <mxGeometry x="-0.9324" y="2" relative="1" as="geometry">
            <mxPoint as="offset" />
          </mxGeometry>
        </mxCell>
        <mxCell id="EMvJGd1fPkYtqGPaU_1e-53" style="edgeStyle=orthogonalEdgeStyle;rounded=0;orthogonalLoop=1;jettySize=auto;html=1;exitX=0.5;exitY=1;exitDx=0;exitDy=0;entryX=0.5;entryY=0;entryDx=0;entryDy=0;" edge="1" parent="EMvJGd1fPkYtqGPaU_1e-1" source="EMvJGd1fPkYtqGPaU_1e-49" target="EMvJGd1fPkYtqGPaU_1e-34">
          <mxGeometry relative="1" as="geometry" />
        </mxCell>
        <mxCell id="EMvJGd1fPkYtqGPaU_1e-54" value="是" style="edgeLabel;html=1;align=center;verticalAlign=middle;resizable=0;points=[];" vertex="1" connectable="0" parent="EMvJGd1fPkYtqGPaU_1e-53">
          <mxGeometry x="-0.8679" relative="1" as="geometry">
            <mxPoint as="offset" />
          </mxGeometry>
        </mxCell>
      </root>
    </mxGraphModel>
  </diagram>
</mxfile>
